<?xml version="1.0" standalone="no"?>
<!DOCTYPE svg PUBLIC "-//W3C//DTD SVG 20010904//EN"
 "http://www.w3.org/TR/2001/REC-SVG-20010904/DTD/svg10.dtd">
<svg version="1.0" xmlns="http://www.w3.org/2000/svg"
 width="200.000000pt" height="200.000000pt" viewBox="0 0 200.000000 200.000000"
 preserveAspectRatio="xMidYMid meet">
<metadata>
Created by potrace 1.11, written by Peter Selinger 2001-2013
</metadata>
<g transform="translate(0.000000,200.000000) scale(0.100000,-0.100000)"
fill="#000000" stroke="none">
<path d="M805 1671 c-120 -34 -137 -59 -139 -196 l-1 -90 164 -5 c146 -4 164
-7 167 -22 2 -17 -15 -18 -239 -18 -253 0 -263 0 -312 -21 -16 -7 -34 -11 -38
-10 -5 1 -6 -3 -3 -8 4 -5 1 -13 -7 -18 -48 -30 -81 -146 -81 -290 -1 -61 2
-109 7 -106 4 2 8 -5 8 -16 1 -12 3 -24 4 -28 1 -5 6 -22 10 -40 6 -28 57 -90
96 -118 20 -14 175 -19 183 -6 4 6 7 52 8 103 0 93 12 143 31 131 6 -3 7 -1 3
5 -9 16 32 60 79 85 37 19 58 21 252 23 207 1 212 2 255 27 29 17 48 37 57 61
8 19 17 33 20 31 3 -1 5 86 4 196 -3 211 -7 234 -57 283 -19 20 -67 44 -106
55 -8 2 -80 5 -160 6 -113 2 -158 -1 -205 -14z"/>
<path d="M1369 1335 c-1 -5 -1 -22 -1 -38 0 -18 -3 -25 -11 -20 -9 5 -9 3 0
-8 22 -28 0 -179 -27 -179 -6 0 -9 -4 -6 -9 4 -5 -8 -21 -25 -35 -61 -51 -86
-56 -301 -56 -160 0 -205 -3 -229 -15 -16 -9 -35 -13 -41 -9 -7 4 -8 3 -4 -5
4 -6 1 -14 -8 -17 -8 -3 -20 -21 -26 -40 -7 -19 -15 -32 -19 -30 -3 2 -6 -18
-5 -45 1 -27 -2 -52 -7 -55 -5 -3 -6 -11 -2 -17 4 -7 8 -75 9 -153 1 -130 2
-144 23 -173 61 -86 232 -132 396 -108 113 17 202 64 233 122 11 22 15 61 13
140 l-1 51 -165 -1 c-151 0 -165 1 -165 17 0 17 18 18 248 19 258 1 298 3 319
21 7 6 13 8 13 4 0 -3 8 2 18 12 11 9 17 20 15 24 -2 3 4 14 13 22 8 9 13 16
10 16 -3 0 2 17 11 38 49 115 50 245 3 392 -21 67 -29 81 -68 115 -18 15 -44
21 -118 25 -59 3 -94 1 -95 -5z"/>
</g>
</svg>
